<?xml version="1.0" standalone="no"?><!DOCTYPE svg PUBLIC "-//W3C//DTD SVG 1.1//EN" "http://www.w3.org/Graphics/SVG/1.1/DTD/svg11.dtd"><svg t="1757885590287" class="icon" viewBox="0 0 1536 1024" version="1.1" xmlns="http://www.w3.org/2000/svg" p-id="3212" xmlns:xlink="http://www.w3.org/1999/xlink" width="300" height="200"><path d="M358.464 409.664h-122.88a30.72 30.72 0 0 0 0 61.44H358.4v122.944a30.72 30.72 0 0 0 61.44 0v-122.88h122.88a30.72 30.72 0 1 0 0-61.44h-122.88V286.72a30.72 30.72 0 1 0-61.44 0V409.6zM170.56 121.28S250.432 0 384.512 0c50.24 0 102.528 18.752 171.52 64.064 99.584 64.128 152.832 73.984 223.808 73.984 68.032 0 107.456-24.704 198.144-76.928 72-41.408 135.04-58.176 184.32-58.176 140.032 0 203.136 118.336 203.136 118.336S1536 347.008 1536 717.76c0 225.728-88.704 299.648-187.328 299.648-66.048 0-135.04-32.512-184.32-76.864-76.928-71.04-55.232-167.616-396.352-167.616s-322.368 96.64-396.352 167.616c-52.224 44.352-121.216 76.864-184.32 76.864C87.68 1017.408 0 943.488 0 717.696c0-371.648 170.56-596.48 170.56-596.48z m904.896 320c0 45.376 36.48 82.816 82.816 82.816 45.312 0 82.816-36.48 82.816-82.816 0-45.312-36.48-82.816-82.816-82.816-45.44 1.024-82.816 37.504-82.816 82.816z" fill="#E65261" p-id="3213"></path></svg>